<svg width="86" height="48" viewBox="0 0 86 48" fill="none" xmlns="http://www.w3.org/2000/svg">
<path d="M1.76562 21.875C1.40104 21.6667 1.08333 21.4479 0.8125 21.2188C0.552083 20.9896 0.421875 20.7448 0.421875 20.4844C0.421875 19.9844 0.635417 19.7344 1.0625 19.7344C1.34375 19.7344 1.65625 19.8906 2 20.2031C2.34375 20.5156 2.72917 20.7917 3.15625 21.0312C3.58333 21.2604 4.04688 21.4583 4.54688 21.625C5.57812 21.9688 6.53125 22.1406 7.40625 22.1406C8.28125 22.1406 8.95312 22.0833 9.42188 21.9688C9.90104 21.8542 10.3021 21.6979 10.625 21.5C11.3125 21.0729 11.6562 20.526 11.6562 19.8594C11.6562 19.2448 11.3594 18.625 10.7656 18C10.2656 17.4688 9.55729 16.8333 8.64062 16.0938L5.96875 14C3.29167 11.9375 1.71354 10.0521 1.23438 8.34375C1.06771 7.75 0.984375 7.08854 0.984375 6.35938C0.984375 5.63021 1.14583 4.91146 1.46875 4.20312C1.80208 3.49479 2.29167 2.875 2.9375 2.34375C4.32292 1.1875 6.20833 0.609375 8.59375 0.609375C9.8125 0.609375 10.9062 0.791667 11.875 1.15625C12.8438 1.51042 13.5052 1.82812 13.8594 2.10938C14.2135 2.39062 14.3906 2.64583 14.3906 2.875C14.3906 3.35417 14.1927 3.59375 13.7969 3.59375C13.5677 3.59375 13.3229 3.47917 13.0625 3.25C12.8021 3.02083 12.5104 2.82292 12.1875 2.65625C11.875 2.47917 11.5156 2.32292 11.1094 2.1875C10.2344 1.89583 9.375 1.75 8.53125 1.75C6.97917 1.75 6.20312 2.26042 6.20312 3.28125C6.20312 3.70833 6.34375 4.10417 6.625 4.46875C7.125 5.10417 8.09896 6.01562 9.54688 7.20312C11.0052 8.38021 12.1719 9.41146 13.0469 10.2969C13.9323 11.1823 14.6042 11.9792 15.0625 12.6875C15.7917 13.8021 16.1562 14.9635 16.1562 16.1719C16.1562 17.3698 15.9427 18.3906 15.5156 19.2344C15.099 20.0677 14.5104 20.7865 13.75 21.3906C12.1458 22.6615 10.1562 23.2969 7.78125 23.2969C5.40625 23.2969 3.40104 22.8229 1.76562 21.875ZM33.0625 6.03125C36.7292 6.03125 38.5625 7.8125 38.5625 11.375V23H31.8438V7.79688C31.6562 7.67188 31.4062 7.60938 31.0938 7.60938C30.7917 7.60938 30.474 7.68229 30.1406 7.82812C29.8073 7.97396 29.4583 8.17708 29.0938 8.4375C28.3125 9.01042 27.6198 9.72917 27.0156 10.5938V23H20.2969V0.890625H27.0156V8.95312C28.7969 7.00521 30.8125 6.03125 33.0625 6.03125ZM42.2344 14.5625C42.2344 13.3125 42.4583 12.1771 42.9062 11.1562C43.3646 10.125 43.9896 9.22917 44.7812 8.46875C46.4896 6.84375 48.6354 6.03125 51.2188 6.03125C53.8542 6.03125 56 6.875 57.6562 8.5625C59.2396 10.1562 60.0312 12.1719 60.0312 14.6094C60.0312 17.0573 59.2188 19.1042 57.5938 20.75C55.9167 22.4479 53.7708 23.2969 51.1562 23.2969C48.6042 23.2969 46.4896 22.4896 44.8125 20.875C43.0938 19.2083 42.2344 17.1042 42.2344 14.5625ZM50.7188 22.125C50.8021 22.1354 50.8854 22.1406 50.9688 22.1406H51.1875C53.2917 22.1406 55.0573 21.4896 56.4844 20.1875C58.0052 18.7812 58.7656 16.9375 58.7656 14.6562C58.7656 12.4271 58.0521 10.6198 56.625 9.23438C55.2188 7.85938 53.401 7.17188 51.1719 7.17188H50.9375C50.8646 7.17188 50.7917 7.17708 50.7188 7.1875V22.125ZM74.6719 23.2969C73.224 23.2969 71.8229 22.9688 70.4688 22.3125V28H64.0469V6.3125H70.4688V7.17188C71.8333 6.41146 73.2292 6.03125 74.6562 6.03125C76.0833 6.03125 77.3438 6.24479 78.4375 6.67188C79.5312 7.09896 80.4688 7.6875 81.25 8.4375C82.8646 10.0208 83.6719 12.0469 83.6719 14.5156C83.6719 17.0052 82.875 19.0729 81.2812 20.7188C79.6354 22.4375 77.4323 23.2969 74.6719 23.2969ZM74.625 7.17188C73.0833 7.17188 71.6979 7.59896 70.4688 8.45312V20.9219C71.875 21.7344 73.4062 22.1406 75.0625 22.1406H75.4688C75.5938 22.1406 75.7135 22.1302 75.8281 22.1094V7.26562C75.4323 7.20312 75.0312 7.17188 74.625 7.17188ZM1.76562 41.875C1.40104 41.6667 1.08333 41.4479 0.8125 41.2188C0.552083 40.9896 0.421875 40.7448 0.421875 40.4844C0.421875 39.9844 0.635417 39.7344 1.0625 39.7344C1.34375 39.7344 1.65625 39.8906 2 40.2031C2.34375 40.5156 2.72917 40.7917 3.15625 41.0312C3.58333 41.2604 4.04688 41.4583 4.54688 41.625C5.57812 41.9688 6.53125 42.1406 7.40625 42.1406C8.28125 42.1406 8.95312 42.0833 9.42188 41.9688C9.90104 41.8542 10.3021 41.6979 10.625 41.5C11.3125 41.0729 11.6562 40.526 11.6562 39.8594C11.6562 39.2448 11.3594 38.625 10.7656 38C10.2656 37.4688 9.55729 36.8333 8.64062 36.0938L5.96875 34C3.29167 31.9375 1.71354 30.0521 1.23438 28.3438C1.06771 27.75 0.984375 27.0885 0.984375 26.3594C0.984375 25.6302 1.14583 24.9115 1.46875 24.2031C1.80208 23.4948 2.29167 22.875 2.9375 22.3438C4.32292 21.1875 6.20833 20.6094 8.59375 20.6094C9.8125 20.6094 10.9062 20.7917 11.875 21.1562C12.8438 21.5104 13.5052 21.8281 13.8594 22.1094C14.2135 22.3906 14.3906 22.6458 14.3906 22.875C14.3906 23.3542 14.1927 23.5938 13.7969 23.5938C13.5677 23.5938 13.3229 23.4792 13.0625 23.25C12.8021 23.0208 12.5104 22.8229 12.1875 22.6562C11.875 22.4792 11.5156 22.3229 11.1094 22.1875C10.2344 21.8958 9.375 21.75 8.53125 21.75C6.97917 21.75 6.20312 22.2604 6.20312 23.2812C6.20312 23.7083 6.34375 24.1042 6.625 24.4688C7.125 25.1042 8.09896 26.0156 9.54688 27.2031C11.0052 28.3802 12.1719 29.4115 13.0469 30.2969C13.9323 31.1823 14.6042 31.9792 15.0625 32.6875C15.7917 33.8021 16.1562 34.9635 16.1562 36.1719C16.1562 37.3698 15.9427 38.3906 15.5156 39.2344C15.099 40.0677 14.5104 40.7865 13.75 41.3906C12.1458 42.6615 10.1562 43.2969 7.78125 43.2969C5.40625 43.2969 3.40104 42.8229 1.76562 41.875ZM26.7188 43.2969C22.6354 43.2969 20.5938 41.4323 20.5938 37.7031L20.5781 27.4531L18.7812 27.5312C18.2188 27.5312 17.9375 27.3177 17.9375 26.8906C17.9375 26.4635 18.2396 26.25 18.8438 26.25L20.3438 26.3125H20.5781V23.8906L27.2812 20.8906V26.3125H29.375L30.8594 26.25C31.474 26.25 31.7812 26.4688 31.7812 26.9062C31.7812 27.1042 31.6927 27.2604 31.5156 27.375C31.349 27.4792 31.1562 27.5312 30.9375 27.5312L29 27.4531H27.2812V42.1406C28.5 42.1198 29.5156 41.7708 30.3281 41.0938C30.7135 40.8021 30.9844 40.4271 31.1406 39.9688C31.3073 39.5104 31.4531 39.2188 31.5781 39.0938C31.7135 38.9583 31.8698 38.8906 32.0469 38.8906C32.224 38.8906 32.375 38.9635 32.5 39.1094C32.625 39.2448 32.6875 39.4115 32.6875 39.6094C32.6875 39.7969 32.6354 40.0104 32.5312 40.25C32.4271 40.4792 32.2708 40.724 32.0625 40.9844C31.5938 41.5677 31.0521 42.0312 30.4375 42.375C29.3229 42.9896 28.0833 43.2969 26.7188 43.2969ZM33.9219 34.5625C33.9219 33.3125 34.1458 32.1771 34.5938 31.1562C35.0521 30.125 35.6771 29.2292 36.4688 28.4688C38.1771 26.8438 40.3229 26.0312 42.9062 26.0312C45.5417 26.0312 47.6875 26.875 49.3438 28.5625C50.9271 30.1562 51.7188 32.1719 51.7188 34.6094C51.7188 37.0573 50.9062 39.1042 49.2812 40.75C47.6042 42.4479 45.4583 43.2969 42.8438 43.2969C40.2917 43.2969 38.1771 42.4896 36.5 40.875C34.7812 39.2083 33.9219 37.1042 33.9219 34.5625ZM42.4062 42.125C42.4896 42.1354 42.5729 42.1406 42.6562 42.1406H42.875C44.9792 42.1406 46.7448 41.4896 48.1719 40.1875C49.6927 38.7812 50.4531 36.9375 50.4531 34.6562C50.4531 32.4271 49.7396 30.6198 48.3125 29.2344C46.9062 27.8594 45.0885 27.1719 42.8594 27.1719H42.625C42.5521 27.1719 42.4792 27.1771 42.4062 27.1875V42.125ZM66.3594 43.2969C64.9115 43.2969 63.5104 42.9688 62.1562 42.3125V48H55.7344V26.3125H62.1562V27.1719C63.5208 26.4115 64.9167 26.0312 66.3438 26.0312C67.7708 26.0312 69.0312 26.2448 70.125 26.6719C71.2188 27.099 72.1562 27.6875 72.9375 28.4375C74.5521 30.0208 75.3594 32.0469 75.3594 34.5156C75.3594 37.0052 74.5625 39.0729 72.9688 40.7188C71.3229 42.4375 69.1198 43.2969 66.3594 43.2969ZM66.3125 27.1719C64.7708 27.1719 63.3854 27.599 62.1562 28.4531V40.9219C63.5625 41.7344 65.0938 42.1406 66.75 42.1406H67.1562C67.2812 42.1406 67.401 42.1302 67.5156 42.1094V27.2656C67.1198 27.2031 66.7188 27.1719 66.3125 27.1719ZM78.4062 41.2969C78.25 40.8802 78.1719 40.4427 78.1719 39.9844C78.1719 39.526 78.2604 39.1094 78.4375 38.7344C78.625 38.349 78.8854 38.0104 79.2188 37.7188C79.9271 37.0833 80.8125 36.7656 81.875 36.7656C82.9688 36.7656 83.8542 37.125 84.5312 37.8438C85.1562 38.5 85.4688 39.2708 85.4688 40.1562C85.4688 41.0417 85.1146 41.7812 84.4062 42.375C83.6771 42.9896 82.8021 43.2969 81.7812 43.2969C80.0521 43.2969 78.9271 42.6302 78.4062 41.2969Z" fill="#305005"/>
</svg>
